<svg width="40" height="40" viewBox="0 0 40 40" fill="none" xmlns="http://www.w3.org/2000/svg">
<rect x="2" y="2" width="36" height="36" rx="10" fill="url(#bg)"/>
<rect x="2" y="2" width="36" height="36" rx="10" stroke="#DDE7FF" stroke-width="1.2"/>
<rect x="7" y="6.5" width="26" height="18" rx="4.5" fill="#F6FAFF"/>
<rect x="8.5" y="8" width="23" height="15" rx="3.2" fill="url(#screen)"/>
<path d="M13 28.5H27L31.5 33.5H8.5L13 28.5Z" fill="url(#base)"/>
<rect x="10" y="29.8" width="20" height="1.7" rx=".85" fill="#D4DEF2" fill-opacity=".9"/>
<rect x="12.2" y="31.1" width="1.9" height="1.2" rx=".45" fill="#F7FAFF"/>
<rect x="14.8" y="31.1" width="1.9" height="1.2" rx=".45" fill="#F7FAFF"/>
<rect x="17.4" y="31.1" width="1.9" height="1.2" rx=".45" fill="#F7FAFF"/>
<rect x="20" y="31.1" width="1.9" height="1.2" rx=".45" fill="#F7FAFF"/>
<rect x="22.6" y="31.1" width="1.9" height="1.2" rx=".45" fill="#F7FAFF"/>
<rect x="25.2" y="31.1" width="1.9" height="1.2" rx=".45" fill="#F7FAFF"/>
<path d="M11.5 10.5H20" stroke="#C7D6FF" stroke-width="1.4" stroke-linecap="round" stroke-opacity=".92"/>
<path d="M11.5 12.4H16.5" stroke="#B6F1E5" stroke-width="1.4" stroke-linecap="round" stroke-opacity=".92"/>
<path d="M23 10.7H28.4" stroke="#C7D6FF" stroke-width="1.4" stroke-linecap="round" stroke-opacity=".84"/>
<defs>
<linearGradient id="bg" x1="4.5" y1="4.5" x2="35.5" y2="35.5" gradientUnits="userSpaceOnUse">
<stop offset="0" stop-color="#16326B"/>
<stop offset=".55" stop-color="#17546D"/>
<stop offset="1" stop-color="#11424D"/>
</linearGradient>
<linearGradient id="screen" x1="10" y1="9.5" x2="30.5" y2="22" gradientUnits="userSpaceOnUse">
<stop offset="0" stop-color="#214C98"/>
<stop offset="1" stop-color="#173469"/>
</linearGradient>
<linearGradient id="base" x1="10" y1="28.5" x2="29" y2="35.5" gradientUnits="userSpaceOnUse">
<stop offset="0" stop-color="#BAC8E5"/>
<stop offset="1" stop-color="#EEF4FF"/>
</linearGradient>
</defs>
</svg>
