<svg width="40" height="40" viewBox="0 0 40 40" fill="none" xmlns="http://www.w3.org/2000/svg">
<rect x="2" y="2" width="36" height="36" rx="10" fill="url(#bg)"/>
<rect x="2" y="2" width="36" height="36" rx="10" stroke="#C4D4F2" stroke-width="1.2"/>
<rect x="7" y="6.5" width="26" height="18" rx="4.5" fill="#F8FBFF"/>
<rect x="8.5" y="8" width="23" height="15" rx="3.2" fill="url(#screen)"/>
<path d="M13 28.5H27L31.5 33.5H8.5L13 28.5Z" fill="url(#base)"/>
<rect x="10" y="29.8" width="20" height="1.7" rx=".85" fill="#D3DEEF" fill-opacity=".9"/>
<rect x="12.2" y="31.1" width="1.9" height="1.2" rx=".45" fill="#FCFDFF"/>
<rect x="14.8" y="31.1" width="1.9" height="1.2" rx=".45" fill="#FCFDFF"/>
<rect x="17.4" y="31.1" width="1.9" height="1.2" rx=".45" fill="#FCFDFF"/>
<rect x="20" y="31.1" width="1.9" height="1.2" rx=".45" fill="#FCFDFF"/>
<rect x="22.6" y="31.1" width="1.9" height="1.2" rx=".45" fill="#FCFDFF"/>
<rect x="25.2" y="31.1" width="1.9" height="1.2" rx=".45" fill="#FCFDFF"/>
<path d="M11.5 10.5H20" stroke="#D4E0FF" stroke-width="1.4" stroke-linecap="round" stroke-opacity=".92"/>
<path d="M11.5 12.4H16.5" stroke="#B8F1E7" stroke-width="1.4" stroke-linecap="round" stroke-opacity=".92"/>
<path d="M23 10.7H28.4" stroke="#D4E0FF" stroke-width="1.4" stroke-linecap="round" stroke-opacity=".84"/>
<defs>
<linearGradient id="bg" x1="4.5" y1="4.5" x2="35.5" y2="35.5" gradientUnits="userSpaceOnUse">
<stop offset="0" stop-color="#D9E8FF"/>
<stop offset=".55" stop-color="#A7C7FF"/>
<stop offset="1" stop-color="#9DE7E1"/>
</linearGradient>
<linearGradient id="screen" x1="10" y1="9.5" x2="30.5" y2="22" gradientUnits="userSpaceOnUse">
<stop offset="0" stop-color="#4B84DB"/>
<stop offset="1" stop-color="#27509B"/>
</linearGradient>
<linearGradient id="base" x1="10" y1="28.5" x2="29" y2="35.5" gradientUnits="userSpaceOnUse">
<stop offset="0" stop-color="#C7D4EA"/>
<stop offset="1" stop-color="#F2F7FF"/>
</linearGradient>
</defs>
</svg>
